<svg width="786" height="733" fill="none" xmlns="http://www.w3.org/2000/svg"><g clip-path="url(#clip0_14_219)"><path d="M707.362 654.473h-26.181v26.16h26.181v-26.16zm0-26.161h-26.181v26.161h26.181v-26.161z" fill="#fff"/><path d="M707.362 602.105h-26.181v26.207h26.181v-26.207zm-26.181 78.528H655v26.16h26.181v-26.16zm0-26.16H655v26.16h26.181v-26.16z" fill="#fff"/><path d="M681.181 628.312H655v26.161h26.181v-26.161z" fill="#fff"/><path d="M681.181 602.105H655v26.207h26.181v-26.207zm0-26.16H655v26.16h26.181v-26.16zm0-26.207H655v26.16h26.181v-26.16zm0-26.16H655v26.16h26.181v-26.16zM655 680.633h-26.228v26.16H655v-26.16zm0-26.16h-26.228v26.16H655v-26.16zm0-26.161h-26.228v26.161H655v-26.161zm0-26.207h-26.228v26.207H655v-26.207zm0-26.16h-26.228v26.16H655v-26.16zm0-26.207h-26.228v26.16H655v-26.16zm0-26.16h-26.228v26.16H655v-26.16zm0-26.207h-26.228v26.207H655v-26.207zm0-26.16h-26.228v26.16H655v-26.16zM628.772 706.84h-26.181v26.207h26.181V706.84zm0-26.207h-26.181v26.16h26.181v-26.16zm0-26.16h-26.181v26.16h26.181v-26.16zm0-26.161h-26.181v26.161h26.181v-26.161zm0-26.207h-26.181v26.207h26.181v-26.207zm0-26.16h-26.181v26.16h26.181v-26.16zm0-26.207h-26.181v26.16h26.181v-26.16zm0-26.16h-26.181v26.16h26.181v-26.16zm0-26.207h-26.181v26.207h26.181v-26.207zm0-26.16h-26.181v26.16h26.181v-26.16zm0-26.16h-26.181v26.16h26.181v-26.16zm0-26.207h-26.181v26.207h26.181v-26.207zM602.59 706.84h-26.181v26.207h26.181V706.84zm0-26.207h-26.181v26.16h26.181v-26.16zm0-26.16h-26.181v26.16h26.181v-26.16zm0-26.161h-26.181v26.161h26.181v-26.161zm0-26.207h-26.181v26.207h26.181v-26.207zm0-26.16h-26.181v26.16h26.181v-26.16zm0-26.207h-26.181v26.16h26.181v-26.16zm0-26.16h-26.181v26.16h26.181v-26.16zm0-26.207h-26.181v26.207h26.181v-26.207zm0-26.16h-26.181v26.16h26.181v-26.16zm0-26.16h-26.181v26.16h26.181v-26.16zm0-26.207h-26.181v26.207h26.181v-26.207zM576.362 706.84h-26.181v26.207h26.181V706.84zm0-26.207h-26.181v26.16h26.181v-26.16zm0-26.16h-26.181v26.16h26.181v-26.16zm0-26.161h-26.181v26.161h26.181v-26.161zm0-26.207h-26.181v26.207h26.181v-26.207zm0-26.16h-26.181v26.16h26.181v-26.16zm0-26.207h-26.181v26.16h26.181v-26.16zm0-26.16h-26.181v26.16h26.181v-26.16zm0-26.207h-26.181v26.207h26.181v-26.207zm0-26.16h-26.181v26.16h26.181v-26.16zm0-26.16h-26.181v26.16h26.181v-26.16zm0-26.207h-26.181v26.207h26.181v-26.207z" fill="#fff"/><path d="M576.362 392.684h-26.181v26.16h26.181v-26.16zm0-26.161h-26.181v26.161h26.181v-26.161zM550.228 706.84H524v26.207h26.228V706.84zm0-26.207H524v26.16h26.228v-26.16zm0-26.16H524v26.16h26.228v-26.16zm0-26.161H524v26.161h26.228v-26.161zm0-26.207H524v26.207h26.228v-26.207zm0-26.16H524v26.16h26.228v-26.16zm0-26.207H524v26.16h26.228v-26.16zm0-26.16H524v26.16h26.228v-26.16zm0-26.207H524v26.207h26.228v-26.207zm0-26.16H524v26.16h26.228v-26.16zm0-26.16H524v26.16h26.228v-26.16z" fill="#fff"/><path d="M550.228 418.844H524v26.207h26.228v-26.207z" fill="#E2D7D7"/><path d="M550.228 392.684H524v26.16h26.228v-26.16zm0-26.161H524v26.161h26.228v-26.161zm0-26.207H524v26.161h26.228v-26.161z" fill="#E2D7D7"/><path d="M550.228 104.734H524v26.207h26.228v-26.207z" fill="#FFC0C0"/><path d="M550.228 78.527H524v26.161h26.228v-26.16zm0-26.16H524v26.16h26.228v-26.16zM523.953 706.84h-26.181v26.207h26.181V706.84zm0-26.207h-26.181v26.16h26.181v-26.16zm0-26.16h-26.181v26.16h26.181v-26.16zm0-26.161h-26.181v26.161h26.181v-26.161zm0-26.207h-26.181v26.207h26.181v-26.207zm0-26.16h-26.181v26.16h26.181v-26.16zm0-26.207h-26.181v26.16h26.181v-26.16zm0-26.16h-26.181v26.16h26.181v-26.16zm0-26.207h-26.181v26.207h26.181v-26.207z" fill="#fff"/><path d="M523.953 471.211h-26.181v26.16h26.181v-26.16zm0-26.16h-26.181v26.16h26.181v-26.16zm0-26.207h-26.181v26.207h26.181v-26.207z" fill="#E2D7D7"/><path d="M523.953 392.684h-26.181v26.16h26.181v-26.16zm0-26.161h-26.181v26.161h26.181v-26.161zm0-26.207h-26.181v26.161h26.181v-26.161z" fill="#fff"/><path d="M523.953 314.156h-26.181v26.207h26.181v-26.207zm0-26.207h-26.181v26.16h26.181v-26.16zm0-26.16h-26.181v26.16h26.181v-26.16z" fill="#fff"/><path d="M523.953 130.895h-26.181v26.16h26.181v-26.16z" fill="#FFC0C0"/><path d="M523.953 104.734h-26.181v26.207h26.181v-26.207z" fill="#FFC0C0"/><path d="M523.953 78.527h-26.181v26.161h26.181v-26.16zM497.772 706.84h-26.181v26.207h26.181V706.84zm0-26.207h-26.181v26.16h26.181v-26.16zm0-26.16h-26.181v26.16h26.181v-26.16zm0-26.161h-26.181v26.161h26.181v-26.161zm0-26.207h-26.181v26.207h26.181v-26.207zm0-26.16h-26.181v26.16h26.181v-26.16z" fill="#fff"/><path d="M497.772 549.738h-26.181v26.16h26.181v-26.16zm0-26.16h-26.181v26.16h26.181v-26.16zm0-26.207h-26.181v26.207h26.181v-26.207zm0-26.16h-26.181v26.16h26.181v-26.16zm0-26.16h-26.181v26.16h26.181v-26.16zm0-26.207h-26.181v26.207h26.181v-26.207z" fill="#E2D7D7"/><path d="M497.772 157.055h-26.181v26.16h26.181v-26.16zm0-26.16h-26.181v26.16h26.181v-26.16z" fill="#FFC0C0"/><path d="M497.772 104.734h-26.181v26.207h26.181v-26.207zm0-26.207h-26.181v26.161h26.181v-26.16zM471.59 706.84h-26.181v26.207h26.181V706.84zm0-26.207h-26.181v26.16h26.181v-26.16zm0-26.16h-26.181v26.16h26.181v-26.16zm0-26.161h-26.181v26.161h26.181v-26.161z" fill="#fff"/><path d="M471.59 602.105h-26.181v26.207h26.181v-26.207zm0-26.16h-26.181v26.16h26.181v-26.16zm0-26.207h-26.181v26.16h26.181v-26.16zm0-26.16h-26.181v26.16h26.181v-26.16z" fill="#E2D7D7"/><path d="M471.59 130.895h-26.181v26.16h26.181v-26.16z" fill="#fff"/><path d="M471.59 104.734h-26.181v26.207h26.181v-26.207zM445.41 706.84h-26.228v26.207h26.228V706.84zm0-26.207h-26.228v26.16h26.228v-26.16zm0-26.16h-26.228v26.16h26.228v-26.16z" fill="#fff"/><path d="M445.41 628.312h-26.228v26.161h26.228v-26.161z" fill="#E2D7D7"/><path d="M445.41 602.105h-26.228v26.207h26.228v-26.207zm0-26.16h-26.228v26.16h26.228v-26.16zm0-26.207h-26.228v26.16h26.228v-26.16z" fill="#E2D7D7"/><path d="M419.181 706.84H393v26.207h26.181V706.84zm0-26.207H393v26.16h26.181v-26.16zm0-26.16H393v26.16h26.181v-26.16z" fill="#fff"/><path d="M419.181 628.312H393v26.161h26.181v-26.161z" fill="#E2D7D7"/><path d="M419.181 602.105H393v26.207h26.181v-26.207z" fill="#E2D7D7"/><path d="M393 706.84h-26.181v26.207H393V706.84zm0-26.207h-26.181v26.16H393v-26.16z" fill="#fff"/><path d="M393 654.473h-26.181v26.16H393v-26.16zm0-26.161h-26.181v26.161H393v-26.161z" fill="#E2D7D7"/><path d="M366.772 706.84h-26.181v26.207h26.181V706.84zm0-26.207h-26.181v26.16h26.181v-26.16z" fill="#fff"/><path d="M366.772 654.473h-26.181v26.16h26.181v-26.16z" fill="#E2D7D7"/><path d="M340.637 680.633h-26.228v26.16h26.228v-26.16z" fill="#fff"/><path d="M340.637 654.473h-26.228v26.16h26.228v-26.16zm0-549.739h-26.228v26.207h26.228v-26.207zm0-26.207h-26.228v26.161h26.228v-26.16zm0-26.16h-26.228v26.16h26.228v-26.16zm-26.274 52.367h-26.181v26.207h26.181v-26.207z" fill="#E2D7D7"/><path d="M314.363 78.527h-26.181v26.161h26.181v-26.16zm-26.182 26.207H262v26.207h26.181v-26.207zm0-26.207H262v26.161h26.181v-26.16zM262 130.895h-26.181v26.16H262v-26.16z" fill="#fff"/><path d="M262 104.734h-26.181v26.207H262v-26.207zm235.772 314.11h-26.181v26.207h26.181v-26.207z" fill="#fff"/><path d="M497.772 392.684h-26.181v26.16h26.181v-26.16zm0-26.161h-26.181v26.161h26.181v-26.161zm0-26.207h-26.181v26.161h26.181v-26.161z" fill="#fff"/><path d="M497.772 314.156h-26.181v26.207h26.181v-26.207zm0-26.207h-26.181v26.16h26.181v-26.16zm0-26.16h-26.181v26.16h26.181v-26.16zm0-26.16h-26.181v26.16h26.181v-26.16zm0-26.207h-26.181v26.207h26.181v-26.207zm0-26.16h-26.181v26.16h26.181v-26.16zm-26.181 314.109H445.41v26.207h26.181v-26.207z" fill="#fff"/><path d="M471.591 471.211H445.41v26.16h26.181v-26.16zm0-26.16H445.41v26.16h26.181v-26.16zm0-26.207H445.41v26.207h26.181v-26.207z" fill="#fff"/><path d="M471.591 392.684H445.41v26.16h26.181v-26.16zm0-26.161H445.41v26.161h26.181v-26.161zm0-26.207H445.41v26.161h26.181v-26.161z" fill="#fff"/><path d="M471.591 314.156H445.41v26.207h26.181v-26.207zm0-26.207H445.41v26.16h26.181v-26.16zm0-26.16H445.41v26.16h26.181v-26.16zm0-26.16H445.41v26.16h26.181v-26.16zm0-26.207H445.41v26.207h26.181v-26.207zm0-26.16H445.41v26.16h26.181v-26.16zm0-26.207H445.41v26.16h26.181v-26.16zm-26.182 366.523h-26.228v26.16h26.228v-26.16zm0-26.207h-26.228v26.207h26.228v-26.207z" fill="#fff"/><path d="M445.409 471.211h-26.228v26.16h26.228v-26.16zm0-26.16h-26.228v26.16h26.228v-26.16zm0-26.207h-26.228v26.207h26.228v-26.207z" fill="#fff"/><path d="M445.409 392.684h-26.228v26.16h26.228v-26.16zm0-26.161h-26.228v26.161h26.228v-26.161zm0-26.207h-26.228v26.161h26.228v-26.161z" fill="#fff"/><path d="M445.409 314.156h-26.228v26.207h26.228v-26.207zm0-26.207h-26.228v26.16h26.228v-26.16zm0-26.16h-26.228v26.16h26.228v-26.16zm0-26.16h-26.228v26.16h26.228v-26.16zm0-26.207h-26.228v26.207h26.228v-26.207zm0-26.16h-26.228v26.16h26.228v-26.16zm0-26.207h-26.228v26.16h26.228v-26.16zm0-26.16h-26.228v26.16h26.228v-26.16zm-26.228 445.05H393v26.16h26.181v-26.16zm0-26.207H393v26.16h26.181v-26.16zm0-26.16H393v26.16h26.181v-26.16zm0-26.207H393v26.207h26.181v-26.207zm0-26.16H393v26.16h26.181v-26.16zm0-26.16H393v26.16h26.181v-26.16zm0-26.207H393v26.207h26.181v-26.207zm0-26.16H393v26.16h26.181v-26.16zm0-26.161H393v26.161h26.181v-26.161zm0-26.207H393v26.161h26.181v-26.161z" fill="#fff"/><path d="M419.181 314.156H393v26.207h26.181v-26.207zm0-26.207H393v26.16h26.181v-26.16zm0-26.16H393v26.16h26.181v-26.16zm0-26.16H393v26.16h26.181v-26.16zm0-26.207H393v26.207h26.181v-26.207zm0-26.16H393v26.16h26.181v-26.16zm0-26.207H393v26.16h26.181v-26.16zm0-26.16H393v26.16h26.181v-26.16zM393 602.105h-26.181v26.207H393v-26.207zm0-26.16h-26.181v26.16H393v-26.16zm0-26.207h-26.181v26.16H393v-26.16zm0-26.16h-26.181v26.16H393v-26.16zm0-26.207h-26.181v26.207H393v-26.207zm0-26.16h-26.181v26.16H393v-26.16zm0-26.16h-26.181v26.16H393v-26.16zm0-26.207h-26.181v26.207H393v-26.207zm0-26.16h-26.181v26.16H393v-26.16zm0-26.161h-26.181v26.161H393v-26.161zm0-26.207h-26.181v26.161H393v-26.161z" fill="#fff"/><path d="M393 314.156h-26.181v26.207H393v-26.207zm0-26.207h-26.181v26.16H393v-26.16zm0-26.16h-26.181v26.16H393v-26.16zm0-26.16h-26.181v26.16H393v-26.16zm0-26.207h-26.181v26.207H393v-26.207zm0-26.16h-26.181v26.16H393v-26.16zm0-26.207h-26.181v26.16H393v-26.16zm0-26.16h-26.181v26.16H393v-26.16zm-26.228 497.417H340.59v26.161h26.182v-26.161z" fill="#fff"/><path d="M366.772 602.105H340.59v26.207h26.182v-26.207zm0-26.16H340.59v26.16h26.182v-26.16zm0-26.207H340.59v26.16h26.182v-26.16zm0-26.16H340.59v26.16h26.182v-26.16zm0-26.207H340.59v26.207h26.182v-26.207zm0-26.16H340.59v26.16h26.182v-26.16zm0-26.16H340.59v26.16h26.182v-26.16zm0-26.207H340.59v26.207h26.182v-26.207zm0-26.16H340.59v26.16h26.182v-26.16zm0-26.161H340.59v26.161h26.182v-26.161zm0-26.207H340.59v26.161h26.182v-26.161z" fill="#fff"/><path d="M366.772 314.156H340.59v26.207h26.182v-26.207zm0-26.207H340.59v26.16h26.182v-26.16zm0-26.16H340.59v26.16h26.182v-26.16zm0-26.16H340.59v26.16h26.182v-26.16zm0-26.207H340.59v26.207h26.182v-26.207zm0-26.16H340.59v26.16h26.182v-26.16zm0-26.207H340.59v26.16h26.182v-26.16zm0-26.16H340.59v26.16h26.182v-26.16zm-26.134 497.417H314.41v26.161h26.228v-26.161z" fill="#fff"/><path d="M340.638 602.105H314.41v26.207h26.228v-26.207zm0-26.16H314.41v26.16h26.228v-26.16zm0-26.207H314.41v26.16h26.228v-26.16zm0-26.16H314.41v26.16h26.228v-26.16zm0-26.207H314.41v26.207h26.228v-26.207zm0-26.16H314.41v26.16h26.228v-26.16zm0-26.16H314.41v26.16h26.228v-26.16zm0-26.207H314.41v26.207h26.228v-26.207zm0-26.16H314.41v26.16h26.228v-26.16zm0-26.161H314.41v26.161h26.228v-26.161zm0-26.207H314.41v26.161h26.228v-26.161z" fill="#fff"/><path d="M340.638 314.156H314.41v26.207h26.228v-26.207zm0-26.207H314.41v26.16h26.228v-26.16zm0-26.16H314.41v26.16h26.228v-26.16zm0-26.16H314.41v26.16h26.228v-26.16zm0-26.207H314.41v26.207h26.228v-26.207zm0-26.16H314.41v26.16h26.228v-26.16zm0-26.207H314.41v26.16h26.228v-26.16zm0-26.16H314.41v26.16h26.228v-26.16zm-26.276 497.417h-26.181v26.161h26.181v-26.161z" fill="#fff"/><path d="M314.362 602.105h-26.181v26.207h26.181v-26.207zm0-26.16h-26.181v26.16h26.181v-26.16zm0-26.207h-26.181v26.16h26.181v-26.16zm0-26.16h-26.181v26.16h26.181v-26.16zm0-26.207h-26.181v26.207h26.181v-26.207zm0-26.16h-26.181v26.16h26.181v-26.16zm0-26.16h-26.181v26.16h26.181v-26.16zm0-26.207h-26.181v26.207h26.181v-26.207zm0-26.16h-26.181v26.16h26.181v-26.16zm0-26.161h-26.181v26.161h26.181v-26.161zm0-26.207h-26.181v26.161h26.181v-26.161z" fill="#fff"/><path d="M314.362 314.156h-26.181v26.207h26.181v-26.207zm0-26.207h-26.181v26.16h26.181v-26.16zm0-26.16h-26.181v26.16h26.181v-26.16zm0-26.16h-26.181v26.16h26.181v-26.16zm0-26.207h-26.181v26.207h26.181v-26.207zm0-26.16h-26.181v26.16h26.181v-26.16zm0-26.207h-26.181v26.16h26.181v-26.16zm0-26.16h-26.181v26.16h26.181v-26.16zm-26.181 497.417H262v26.161h26.181v-26.161z" fill="#fff"/><path d="M288.181 602.105H262v26.207h26.181v-26.207zm0-26.16H262v26.16h26.181v-26.16zm0-26.207H262v26.16h26.181v-26.16zm0-26.16H262v26.16h26.181v-26.16zm0-26.207H262v26.207h26.181v-26.207zm0-26.16H262v26.16h26.181v-26.16zm0-26.16H262v26.16h26.181v-26.16zm0-26.207H262v26.207h26.181v-26.207zm0-26.16H262v26.16h26.181v-26.16zm0-26.161H262v26.161h26.181v-26.161zm0-26.207H262v26.161h26.181v-26.161z" fill="#fff"/><path d="M288.181 314.156H262v26.207h26.181v-26.207zm0-26.207H262v26.16h26.181v-26.16zm0-26.16H262v26.16h26.181v-26.16zm0-26.16H262v26.16h26.181v-26.16zm0-26.207H262v26.207h26.181v-26.207zm0-26.16H262v26.16h26.181v-26.16zm0-26.207H262v26.16h26.181v-26.16zm0-26.16H262v26.16h26.181v-26.16zM262 628.312h-26.181v26.161H262v-26.161z" fill="#fff"/><path d="M262 602.105h-26.181v26.207H262v-26.207zm0-26.16h-26.181v26.16H262v-26.16zm0-26.207h-26.181v26.16H262v-26.16zm0-26.16h-26.181v26.16H262v-26.16zm0-26.207h-26.181v26.207H262v-26.207zm0-26.16h-26.181v26.16H262v-26.16zm0-26.16h-26.181v26.16H262v-26.16zm0-26.207h-26.181v26.207H262v-26.207zm0-26.16h-26.181v26.16H262v-26.16zm0-26.161h-26.181v26.161H262v-26.161zm0-26.207h-26.181v26.161H262v-26.161z" fill="#fff"/><path d="M262 314.156h-26.181v26.207H262v-26.207zm0-26.207h-26.181v26.16H262v-26.16zm0-26.16h-26.181v26.16H262v-26.16zm0-26.16h-26.181v26.16H262v-26.16zm0-26.207h-26.181v26.207H262v-26.207zm0-26.16h-26.181v26.16H262v-26.16zm0-26.207h-26.181v26.16H262v-26.16zm-26.182 471.257H209.59v26.161h26.228v-26.161z" fill="#fff"/><path d="M235.818 602.105H209.59v26.207h26.228v-26.207zm0-26.16H209.59v26.16h26.228v-26.16zm0-26.207H209.59v26.16h26.228v-26.16zm0-26.16H209.59v26.16h26.228v-26.16zm0-26.207H209.59v26.207h26.228v-26.207zm0-26.16H209.59v26.16h26.228v-26.16zm0-26.16H209.59v26.16h26.228v-26.16zm0-26.207H209.59v26.207h26.228v-26.207zm0-26.16H209.59v26.16h26.228v-26.16zm0-26.161H209.59v26.161h26.228v-26.161zm0-26.207H209.59v26.161h26.228v-26.161z" fill="#fff"/><path d="M235.818 314.156H209.59v26.207h26.228v-26.207zm0-26.207H209.59v26.16h26.228v-26.16zm0-26.16H209.59v26.16h26.228v-26.16zm0-26.16H209.59v26.16h26.228v-26.16zm0-26.207H209.59v26.207h26.228v-26.207zm0-26.16H209.59v26.16h26.228v-26.16zm0-26.207H209.59v26.16h26.228v-26.16zM209.59 628.312h-26.181v26.161h26.181v-26.161z" fill="#fff"/><path d="M209.59 602.105h-26.181v26.207h26.181v-26.207zm0-26.16h-26.181v26.16h26.181v-26.16zm0-26.207h-26.181v26.16h26.181v-26.16zm0-26.16h-26.181v26.16h26.181v-26.16zm0-26.207h-26.181v26.207h26.181v-26.207zm0-26.16h-26.181v26.16h26.181v-26.16zm0-26.16h-26.181v26.16h26.181v-26.16zm0-26.207h-26.181v26.207h26.181v-26.207zm0-26.16h-26.181v26.16h26.181v-26.16zm0-26.161h-26.181v26.161h26.181v-26.161zm0-26.207h-26.181v26.161h26.181v-26.161z" fill="#fff"/><path d="M209.59 314.156h-26.181v26.207h26.181v-26.207zm0-26.207h-26.181v26.16h26.181v-26.16zm0-26.16h-26.181v26.16h26.181v-26.16zm0-26.16h-26.181v26.16h26.181v-26.16zm0-26.207h-26.181v26.207h26.181v-26.207zm0-26.16h-26.181v26.16h26.181v-26.16zm-26.228 445.05h-26.181v26.161h26.181v-26.161z" fill="#fff"/><path d="M183.362 602.105h-26.181v26.207h26.181v-26.207zm0-26.16h-26.181v26.16h26.181v-26.16zm0-26.207h-26.181v26.16h26.181v-26.16zm0-26.16h-26.181v26.16h26.181v-26.16zm0-26.207h-26.181v26.207h26.181v-26.207zm0-26.16h-26.181v26.16h26.181v-26.16zm0-26.16h-26.181v26.16h26.181v-26.16zm0-26.207h-26.181v26.207h26.181v-26.207zm0-26.16h-26.181v26.16h26.181v-26.16zm0-26.161h-26.181v26.161h26.181v-26.161zm0-26.207h-26.181v26.161h26.181v-26.161z" fill="#fff"/><path d="M183.362 314.156h-26.181v26.207h26.181v-26.207zm0-26.207h-26.181v26.16h26.181v-26.16zm0-26.16h-26.181v26.16h26.181v-26.16zm0-26.16h-26.181v26.16h26.181v-26.16zm-26.181 392.683H131v26.161h26.181v-26.161z" fill="#fff"/><path d="M157.181 602.105H131v26.207h26.181v-26.207zm0-26.16H131v26.16h26.181v-26.16zm0-26.207H131v26.16h26.181v-26.16zm0-26.16H131v26.16h26.181v-26.16zm0-26.207H131v26.207h26.181v-26.207zm0-26.16H131v26.16h26.181v-26.16zm0-26.16H131v26.16h26.181v-26.16zm0-26.207H131v26.207h26.181v-26.207zm0-26.16H131v26.16h26.181v-26.16zm0-26.161H131v26.161h26.181v-26.161zm0-26.207H131v26.161h26.181v-26.161z" fill="#fff"/><path d="M157.181 314.156H131v26.207h26.181v-26.207zm0-26.207H131v26.16h26.181v-26.16zm-26.134 340.363h-26.229v26.161h26.229v-26.161z" fill="#fff"/><path d="M131.047 602.105h-26.229v26.207h26.229v-26.207zm0-26.16h-26.229v26.16h26.229v-26.16zm0-26.207h-26.229v26.16h26.229v-26.16zm0-26.16h-26.229v26.16h26.229v-26.16zm0-26.207h-26.229v26.207h26.229v-26.207zm0-26.16h-26.229v26.16h26.229v-26.16zm0-26.16h-26.229v26.16h26.229v-26.16zm0-26.207h-26.229v26.207h26.229v-26.207zm0-26.16h-26.229v26.16h26.229v-26.16zm0-26.161h-26.229v26.161h26.229v-26.161zm0-26.207h-26.229v26.161h26.229v-26.161zm-26.275 287.996H78.591v26.161h26.181v-26.161z" fill="#fff"/><path d="M104.772 602.105H78.591v26.207h26.181v-26.207zm0-26.16H78.591v26.16h26.181v-26.16zm0-26.207H78.591v26.16h26.181v-26.16zm0-26.16H78.591v26.16h26.181v-26.16zm0-26.207H78.591v26.207h26.181v-26.207zm0-26.16H78.591v26.16h26.181v-26.16zm0-26.16H78.591v26.16h26.181v-26.16zm0-26.207H78.591v26.207h26.181v-26.207zm0-26.16H78.591v26.16h26.181v-26.16zM78.59 628.312H52.41v26.161h26.18v-26.161z" fill="#fff"/><path d="M78.59 602.105H52.41v26.207h26.18v-26.207zm0-26.16H52.41v26.16h26.18v-26.16zm0-26.207H52.41v26.16h26.18v-26.16zm0-26.16H52.41v26.16h26.18v-26.16zm0-26.207H52.41v26.207h26.18v-26.207zm0-26.16H52.41v26.16h26.18v-26.16zm0-26.16H52.41v26.16h26.18v-26.16zm0-26.207H52.41v26.207h26.18v-26.207zm0-26.16H52.41v26.16h26.18v-26.16zM52.41 602.105H26.18v26.207h26.23v-26.207zm0-26.16H26.18v26.16h26.23v-26.16zm0-26.207H26.18v26.16h26.23v-26.16zm0-26.16H26.18v26.16h26.23v-26.16zm0-26.207H26.18v26.207h26.23v-26.207z" fill="#fff"/><path d="M52.41 471.211H26.18v26.16h26.23v-26.16zm0-26.16H26.18v26.16h26.23v-26.16zm0-26.207H26.18v26.207h26.23v-26.207zM26.181 575.945H0v26.16h26.181v-26.16zm0-26.207H0v26.16h26.181v-26.16zm0-26.16H0v26.16h26.181v-26.16z" fill="#fff"/><path d="M26.181 497.371H0v26.207h26.181v-26.207z" fill="#fff"/><path d="M26.181 471.211H0v26.16h26.181v-26.16zm0-26.16H0v26.16h26.181v-26.16zM340.638 706.84H314.41v26.207h26.228V706.84zm0-26.207H314.41v26.16h26.228v-26.16zm-26.275 26.207h-26.181v26.207h26.181V706.84zm0-26.207h-26.181v26.16h26.181v-26.16z" fill="#fff"/><path d="M209.59 471.211h-26.181v26.16h26.181v-26.16zm0-26.16h-26.181v26.16h26.181v-26.16zm-104.818 26.16H78.591v26.16h26.181v-26.16zm0-26.16H78.591v26.16h26.181v-26.16z" fill="#3F2A5E"/><path d="M576.363 287.949h-26.181v26.16h26.181v-26.16z" fill="#353535"/><path d="M550.229 287.949H524v26.16h26.229v-26.16zm0-26.16H524v26.16h26.229v-26.16z" fill="#353535"/><path d="M576.363 261.789h-26.181v26.16h26.181v-26.16zm-26.134-26.16H524v26.16h26.229v-26.16zm-52.457 0h-26.181v26.16h26.181v-26.16zm0 26.16h-26.181v26.16h26.181v-26.16zm26.181-26.16h-26.181v26.16h26.181v-26.16zm0 26.16h-26.181v26.16h26.181v-26.16zm-78.544 78.527h-26.228v26.161h26.228v-26.161z" fill="#353535"/><path d="M419.182 340.316H393v26.161h26.182v-26.161zm-26.182 0h-26.181v26.161H393v-26.161zm-26.228 0h-26.181v26.161h26.181v-26.161zm104.819-26.16H445.41v26.207h26.181v-26.207zm0-52.367H445.41v26.16h26.181v-26.16zm0-26.16H445.41v26.16h26.181v-26.16zm0 52.32H445.41v26.16h26.181v-26.16z" fill="#353535"/><path d="M445.409 314.156h-26.228v26.207h26.228v-26.207zm0-26.207h-26.228v26.16h26.228v-26.16zm0-26.16h-26.228v26.16h26.228v-26.16zm0-26.16h-26.228v26.16h26.228v-26.16z" fill="#353535"/><path d="M419.182 314.156H393v26.207h26.182v-26.207zm0-26.207H393v26.16h26.182v-26.16zm0-52.32H393v26.16h26.182v-26.16zm0 26.16H393v26.16h26.182v-26.16zM393 235.629h-26.181v26.16H393v-26.16zm0 52.32h-26.181v26.16H393v-26.16zm0 26.207h-26.181v26.207H393v-26.207zm0-52.367h-26.181v26.16H393v-26.16zm-26.228 52.367h-26.181v26.207h26.181v-26.207zm0-78.527h-26.181v26.16h26.181v-26.16zm0 52.32h-26.181v26.16h26.181v-26.16zm0-26.16h-26.181v26.16h26.181v-26.16z" fill="#353535"/><path d="M340.638 314.156H314.41v26.207h26.228v-26.207zm0-78.527H314.41v26.16h26.228v-26.16zm0 52.32H314.41v26.16h26.228v-26.16zm0-26.16H314.41v26.16h26.228v-26.16z" fill="#353535"/><path d="M340.638 340.316H314.41v26.161h26.228v-26.161zm-26.275-26.16h-26.181v26.207h26.181v-26.207zm0-26.207h-26.181v26.16h26.181v-26.16zm-26.182-26.16H262v26.16h26.181v-26.16zm0-26.16H262v26.16h26.181v-26.16z" fill="#353535"/><path d="M262.001 235.629h-26.182v26.16h26.182v-26.16zm52.362 26.16h-26.181v26.16h26.181v-26.16zm0-26.16h-26.181v26.16h26.181v-26.16zm-52.362 26.16h-26.182v26.16h26.182v-26.16zm0 52.367h-26.182v26.207h26.182v-26.207zm0-26.207h-26.182v26.16h26.182v-26.16zm-26.182 52.367h-26.228v26.161h26.228v-26.161zm-26.229 0h-26.181v26.161h26.181v-26.161zm-26.227 0h-26.181v26.161h26.181v-26.161zm-26.182 0H131v26.161h26.181v-26.161z" fill="#353535"/><path d="M131.047 340.316h-26.228v26.161h26.228v-26.161zm104.772-52.367h-26.228v26.16h26.228v-26.16zm0-26.16h-26.228v26.16h26.228v-26.16zm0-26.16h-26.228v26.16h26.228v-26.16zm-26.229 0h-26.181v26.16h26.181v-26.16zm0 26.16h-26.181v26.16h26.181v-26.16zm0 26.16h-26.181v26.16h26.181v-26.16zm-26.227-26.16h-26.181v26.16h26.181v-26.16zm0-26.16h-26.181v26.16h26.181v-26.16zm0 52.32h-26.181v26.16h26.181v-26.16zm-26.182 0H131v26.16h26.181v-26.16zm0-26.16H131v26.16h26.181v-26.16zm0-26.16H131v26.16h26.181v-26.16z" fill="#353535"/><path d="M131.047 261.789h-26.228v26.16h26.228v-26.16zm0 26.16h-26.228v26.16h26.228v-26.16zm104.772 26.207h-26.228v26.207h26.228v-26.207zm-26.229 0h-26.181v26.207h26.181v-26.207zm-26.227 0h-26.181v26.207h26.181v-26.207zm-26.182 0H131v26.207h26.181v-26.207z" fill="#353535"/><path d="M131.047 314.156h-26.228v26.207h26.228v-26.207zm-26.275 0H78.591v26.207h26.181v-26.207zm0-26.207H78.591v26.16h26.181v-26.16zm0-26.16H78.591v26.16h26.181v-26.16zm0-26.16H78.591v26.16h26.181v-26.16zm26.275 0h-26.228v26.16h26.228v-26.16z" fill="#353535"/><path d="M471.59 209.422h-26.181v26.207h26.181v-26.207zm0-26.16h-26.181v26.16h26.181v-26.16zM52.41 602.105H26.18v26.207h26.23v-26.207zm183.408 26.207H209.59v26.161h26.228v-26.161z" fill="#E4DFE8"/><path d="M209.591 628.312H183.41v26.161h26.181v-26.161zm52.409 0h-26.181v26.161H262v-26.161zm-104.819 0H131v26.161h26.181v-26.161z" fill="#E4DFE8"/><path d="M131.047 628.312h-26.228v26.161h26.228v-26.161zm-26.275 0H78.59v26.161h26.182v-26.161zm-26.182 0H52.41v26.161h26.18v-26.161zm104.772 0h-26.181v26.161h26.181v-26.161zm235.819-78.574H393v26.16h26.181v-26.16zm0 26.207H393v26.16h26.181v-26.16zM393 602.105h-26.181v26.207H393v-26.207zm-52.363 26.207h-26.228v26.161h26.228v-26.161z" fill="#E4DFE8"/><path d="M366.772 628.312h-26.181v26.161h26.181v-26.161zm-52.41 0h-26.181v26.161h26.181v-26.161zm-26.181 0H262v26.161h26.181v-26.161zM445.41 523.578h-26.228v26.16h26.228v-26.16zm26.18-52.367h-26.181v26.16h26.181v-26.16zm0-26.16h-26.181v26.16h26.181v-26.16zm0 52.32h-26.181v26.207h26.181v-26.207zm26.182-78.527h-26.181v26.207h26.181v-26.207zm26.181-52.321h-26.181v26.161h26.181v-26.161zm0-26.207h-26.181v26.161h26.181v-26.161zm0 52.368h-26.181v26.16h26.181v-26.16zm0-104.735h-26.181v26.16h26.181v-26.16z" fill="#E4DFE8"/><path d="M523.953 314.156h-26.181v26.207h26.181v-26.207zm-26.181-104.734h-26.181v26.207h26.181v-26.207zm0-26.16h-26.181v26.16h26.181v-26.16zm-183.41-52.367h-26.181v26.16h26.181v-26.16zm26.275 0h-26.228v26.16h26.228v-26.16zm104.773 0h-26.228v26.16h26.228v-26.16zm-26.229 0H393v26.16h26.181v-26.16zm-26.181 0h-26.181v26.16H393v-26.16z" fill="#E4DFE8"/><path d="M366.772 130.895h-26.181v26.16h26.181v-26.16zm209.59 287.949h-26.181v26.207h26.181v-26.207zm26.228 26.207h-26.181v26.16h26.181v-26.16zm26.182 26.16H602.59v26.16h26.182v-26.16z" fill="#E4DFE8"/><path d="M628.772 497.371H602.59v26.207h26.182v-26.207zM655 523.578h-26.228v26.16H655v-26.16zm0 26.16h-26.228v26.16H655v-26.16zm0 26.207h-26.228v26.16H655v-26.16zm26.181 26.16H655v26.207h26.181v-26.207zm0 26.207H655v26.161h26.181v-26.161zm0 26.161H655v26.16h26.181v-26.16zM655 680.633h-26.228v26.16H655v-26.16zm26.181 0H655v26.16h26.181v-26.16z" fill="#E4DFE8"/><path d="M707.362 602.105h-26.181v26.207h26.181v-26.207zm0 52.368h-26.181v26.16h26.181v-26.16z" fill="#E4DFE8"/><path d="M707.362 628.312h-26.181v26.161h26.181v-26.161zm-26.181-52.367H655v26.16h26.181v-26.16zm0-26.207H655v26.16h26.181v-26.16zm0-26.16H655v26.16h26.181v-26.16zM655 471.211h-26.228v26.16H655v-26.16z" fill="#E4DFE8"/><path d="M655 497.371h-26.228v26.207H655v-26.207zm-26.228-78.527H602.59v26.207h26.182v-26.207zm0 26.207H602.59v26.16h26.182v-26.16zm-26.182-26.207h-26.181v26.207h26.181v-26.207zm-26.228-26.16h-26.181v26.16h26.181v-26.16zm0-26.161h-26.181v26.161h26.181v-26.161z" fill="#E4DFE8"/><path d="M235.818 104.734H209.59v26.207h26.228v-26.207zm-26.228 52.321h-26.181v26.16h26.181v-26.16z" fill="#531484"/><path d="M235.818 130.895H209.59v26.16h26.228v-26.16zM733.59 366.523h-26.181v26.161h26.181v-26.161zm-26.228 0h-26.181v26.161h26.181v-26.161zm-26.181-26.207H655v26.161h26.181v-26.161zm104.772 52.368h-26.182v26.16h26.182v-26.16z" fill="#531484"/><path d="M759.819 392.684h-26.228v26.16h26.228v-26.16zm26.134-26.161h-26.182v26.161h26.182v-26.161zm-104.772 0H655v26.161h26.181v-26.161zm26.181 104.688h-26.181v26.16h26.181v-26.16zm0-26.16h-26.181v26.16h26.181v-26.16z" fill="#531484"/><path d="M759.819 418.844h-26.228v26.207h26.228v-26.207zm-26.229 0h-26.181v26.207h26.181v-26.207zm-26.228 0h-26.181v26.207h26.181v-26.207z" fill="#531484"/><path d="M681.181 392.684H655v26.16h26.181v-26.16z" fill="#531484"/><path d="M681.181 418.844H655v26.207h26.181v-26.207zm26.181 104.734h-26.181v26.16h26.181v-26.16zm-26.181-78.527H655v26.16h26.181v-26.16zm0 52.32H655v26.207h26.181v-26.207zM655 418.844h-26.229v26.207H655v-26.207z" fill="#531484"/><path d="M681.181 471.211H655v26.16h26.181v-26.16zm-26.181 0h-26.229v26.16H655v-26.16zm0-26.16h-26.229v26.16H655v-26.16zm-26.229-26.207H602.59v26.207h26.181v-26.207zm-78.543-52.321H524v26.161h26.228v-26.161zm0 26.161H524v26.16h26.228v-26.16z" fill="#531484"/><path d="M628.771 445.051H602.59v26.16h26.181v-26.16zm0 26.16H602.59v26.16h26.181v-26.16zm-52.409-78.527h-26.181v26.16h26.181v-26.16zm0 52.367h-26.181v26.16h26.181v-26.16z" fill="#531484"/><path d="M576.362 418.844h-26.181v26.207h26.181v-26.207zm0-52.321h-26.181v26.161h26.181v-26.161zm-26.134 78.528H524v26.16h26.228v-26.16zm-26.275 52.32h-26.182v26.207h26.182v-26.207zm78.638-52.32h-26.182v26.16h26.182v-26.16zm0 26.16h-26.182v26.16h26.182v-26.16zm0-52.367h-26.182v26.207h26.182v-26.207zm0-26.16h-26.182v26.16h26.182v-26.16zm-26.229 104.687h-26.181v26.207h26.181v-26.207z" fill="#531484"/><path d="M576.362 471.211h-26.181v26.16h26.181v-26.16z" fill="#531484"/><path d="M550.228 497.371H524v26.207h26.228v-26.207zm78.543-104.687H602.59v26.16h26.181v-26.16zm131.048-157.055h-26.228v26.16h26.228v-26.16zm-26.229 26.16h-26.181v26.16h26.181v-26.16zm-26.228 26.16h-26.181v26.16h26.181v-26.16zm0-26.16h-26.181v26.16h26.181v-26.16zm0-26.16h-26.181v26.16h26.181v-26.16zm-26.181 78.527H655v26.207h26.181v-26.207z" fill="#531484"/><path d="M681.181 287.949H655v26.16h26.181v-26.16zm0-26.16H655v26.16h26.181v-26.16zm0-26.16H655v26.16h26.181v-26.16zm0-52.367H655v26.16h26.181v-26.16zm0-26.207H655v26.16h26.181v-26.16zM655 392.684h-26.229v26.16H655v-26.16zm0-26.161h-26.229v26.161H655v-26.161zm0-26.207h-26.229v26.161H655v-26.161z" fill="#531484"/><path d="M655 314.156h-26.229v26.207H655v-26.207zm0-26.207h-26.229v26.16H655v-26.16zm0-26.16h-26.229v26.16H655v-26.16zm0-26.16h-26.229v26.16H655v-26.16zm0-52.367h-26.229v26.16H655v-26.16zm-26.229 183.261H602.59v26.161h26.181v-26.161z" fill="#531484"/><path d="M628.771 340.316H602.59v26.161h26.181v-26.161z" fill="#531484"/><path d="M628.771 314.156H602.59v26.207h26.181v-26.207zm0-26.207H602.59v26.16h26.181v-26.16zm0-26.16H602.59v26.16h26.181v-26.16zm0-26.16H602.59v26.16h26.181v-26.16zm0-52.367H602.59v26.16h26.181v-26.16zm-26.18 183.261h-26.182v26.161h26.182v-26.161z" fill="#531484"/><path d="M602.591 340.316h-26.182v26.161h26.182v-26.161z" fill="#531484"/><path d="M602.591 314.156h-26.182v26.207h26.182v-26.207zm0-26.207h-26.182v26.16h26.182v-26.16zm0-26.16h-26.182v26.16h26.182v-26.16zm0-26.16h-26.182v26.16h26.182v-26.16zm0-26.207h-26.182v26.207h26.182v-26.207zm-26.229 130.894h-26.181v26.161h26.181v-26.161z" fill="#531484"/><path d="M576.362 314.156h-26.181v26.207h26.181v-26.207zm0-78.527h-26.181v26.16h26.181v-26.16zm0-26.207h-26.181v26.207h26.181v-26.207zm0-26.16h-26.181v26.16h26.181v-26.16zm0-26.207h-26.181v26.16h26.181v-26.16z" fill="#531484"/><path d="M550.228 314.156H524v26.207h26.228v-26.207zm0-104.734H524v26.207h26.228v-26.207zm0-26.16H524v26.16h26.228v-26.16zm0-26.207H524v26.16h26.228v-26.16zm0-26.16H524v26.16h26.228v-26.16zm-26.275 78.527h-26.182v26.207h26.182v-26.207zm0-26.16h-26.182v26.16h26.182v-26.16zm0-26.207h-26.182v26.16h26.182v-26.16zM471.59 78.527h-26.181v26.161h26.181v-26.16zm-26.181 26.207h-26.228v26.207h26.228v-26.207zm0-26.207h-26.228v26.161h26.228v-26.16zm-26.228 26.207H393v26.207h26.181v-26.207zm0-26.207H393v26.161h26.181v-26.16zM393 130.895h-26.182v26.16H393v-26.16z" fill="#531484"/><path d="M393 104.734h-26.182v26.207H393v-26.207zm0-26.207h-26.182v26.161H393v-26.16zm-26.228 130.895H340.59v26.207h26.182v-26.207zm0-78.527H340.59v26.16h26.182v-26.16z" fill="#531484"/><path d="M366.772 104.734H340.59v26.207h26.182v-26.207zm0-26.207H340.59v26.161h26.182v-26.16zm-26.135 130.895h-26.228v26.207h26.228v-26.207zm0-26.16h-26.228v26.16h26.228v-26.16z" fill="#531484"/><path d="M340.637 130.895h-26.228v26.16h26.228v-26.16z" fill="#531484"/><path d="M340.637 104.734h-26.228v26.207h26.228v-26.207zm-26.275 104.688h-26.181v26.207h26.181v-26.207zm0-26.16h-26.181v26.16h26.181v-26.16zm0-26.207h-26.181v26.16h26.181v-26.16zm0-26.16h-26.181v26.16h26.181v-26.16z" fill="#531484"/><path d="M314.362 104.734h-26.181v26.207h26.181v-26.207zm-26.181 78.528H262v26.16h26.181v-26.16zm0-26.207H262v26.16h26.181v-26.16zm0-26.16H262v26.16h26.181v-26.16zM262 183.262h-26.182v26.16H262v-26.16zm0-26.207h-26.182v26.16H262v-26.16zm0-26.16h-26.182v26.16H262v-26.16z" fill="#531484"/><path d="M576.363 261.789h-26.181v26.16h26.181v-26.16zm0 26.16h-26.181v26.16h26.181v-26.16z" fill="#232323"/><path d="M550.229 287.949H524v26.16h26.229v-26.16zm0-26.16H524v26.16h26.229v-26.16zm0-26.16H524v26.16h26.229v-26.16zm-26.276 26.16h-26.181v26.16h26.181v-26.16zm0-26.16h-26.181v26.16h26.181v-26.16zm-26.181 26.16h-26.181v26.16h26.181v-26.16zm0-26.16h-26.181v26.16h26.181v-26.16zm-26.181 0H445.41v26.16h26.181v-26.16zm0 26.16H445.41v26.16h26.181v-26.16zm0 26.16H445.41v26.16h26.181v-26.16zm0 26.207H445.41v26.207h26.181v-26.207zm-26.182 26.16h-26.228v26.161h26.228v-26.161z" fill="#232323"/><path d="M759.819 392.684h-26.228v26.16h26.228v-26.16zm0-157.055h-26.228v26.16h26.228v-26.16zM733.59 418.844h-26.181v26.207h26.181v-26.207zm0-157.055h-26.181v26.16h26.181v-26.16zm-26.227 183.262h-26.181v26.16h26.181v-26.16zm0-157.102h-26.181v26.16h26.181v-26.16zm0-52.32h-26.181v26.16h26.181v-26.16zm-26.182 235.582H655v26.16h26.181v-26.16zm0-26.16H655v26.16h26.181v-26.16zm0-52.367H655v26.16h26.181v-26.16zm0-26.161H655v26.161h26.181v-26.161zm0-26.207H655v26.161h26.181v-26.161z" fill="#812DA5"/><path d="M681.181 314.156H655v26.207h26.181v-26.207zm0-52.367H655v26.16h26.181v-26.16zm0-26.16H655v26.16h26.181v-26.16zm0-78.574H655v26.16h26.181v-26.16zm-26.18 314.156h-26.229v26.16h26.229v-26.16zm0-26.16h-26.229v26.16h26.229v-26.16zm0-26.207h-26.229v26.207h26.229v-26.207zm0-52.321h-26.229v26.161h26.229v-26.161z" fill="#812DA5"/><path d="M655.001 314.156h-26.229v26.207h26.229v-26.207zm0-52.367h-26.229v26.16h26.229v-26.16zm0-26.16h-26.229v26.16h26.229v-26.16zm0-52.367h-26.229v26.16h26.229v-26.16zm-26.229 287.949h-26.181v26.16h26.181v-26.16zm0-52.367h-26.181v26.207h26.181v-26.207zm0-52.321h-26.181v26.161h26.181v-26.161z" fill="#812DA5"/><path d="M628.772 340.316h-26.181v26.161h26.181v-26.161z" fill="#812DA5"/><path d="M628.772 314.156h-26.181v26.207h26.181v-26.207zm0-78.527h-26.181v26.16h26.181v-26.16zm0-52.367h-26.181v26.16h26.181v-26.16zm-26.181 287.949H576.41v26.16h26.181v-26.16zm0-52.367H576.41v26.207h26.181v-26.207z" fill="#812DA5"/><path d="M602.591 392.684H576.41v26.16h26.181v-26.16zm0-52.368H576.41v26.161h26.181v-26.161zm0-52.367H576.41v26.16h26.181v-26.16zm0-26.16H576.41v26.16h26.181v-26.16zm0-26.16H576.41v26.16h26.181v-26.16zm0-26.207H576.41v26.207h26.181v-26.207zm-26.228 261.789h-26.181v26.16h26.181v-26.16zm0-26.16h-26.181v26.16h26.181v-26.16zm0-52.367h-26.181v26.16h26.181v-26.16zm0-26.161h-26.181v26.161h26.181v-26.161zm0-26.207h-26.181v26.161h26.181v-26.161z" fill="#812DA5"/><path d="M576.363 314.156h-26.181v26.207h26.181v-26.207zm0-78.527h-26.181v26.16h26.181v-26.16zm0-52.367h-26.181v26.16h26.181v-26.16zm0-26.207h-26.181v26.16h26.181v-26.16zm-26.134 209.468H524v26.161h26.229v-26.161z" fill="#812DA5"/><path d="M550.229 314.156H524v26.207h26.229v-26.207zm0-104.734H524v26.207h26.229v-26.207zm0-52.367H524v26.16h26.229v-26.16zm0-26.16H524v26.16h26.229v-26.16zm-26.276 78.527h-26.181v26.207h26.181v-26.207zM471.591 78.527H445.41v26.161h26.181v-26.16zm-26.182 26.207h-26.228v26.207h26.228v-26.207zm0-26.207h-26.228v26.161h26.228v-26.16z" fill="#812DA5"/><path d="M419.182 130.895H393v26.16h26.182v-26.16zm0-52.368H393v26.161h26.182v-26.16z" fill="#812DA5"/><path d="M393 287.949h-26.181v26.16H393v-26.16z" fill="#fff"/><path d="M393 130.895h-26.181v26.16H393v-26.16zm0-52.368h-26.181v26.161H393v-26.16z" fill="#812DA5"/><path d="M366.772 261.789h-26.181v26.16h26.181v-26.16z" fill="#fff"/><path d="M366.772 209.422h-26.181v26.207h26.181v-26.207zm0-130.895h-26.181v26.161h26.181v-26.16z" fill="#812DA5"/><path d="M340.638 287.949H314.41v26.16h26.228v-26.16z" fill="#fff"/><path d="M340.638 183.262H314.41v26.16h26.228v-26.16zm0-78.528H314.41v26.207h26.228v-26.207z" fill="#812DA5"/><path d="M314.363 261.789h-26.181v26.16h26.181v-26.16z" fill="#fff"/><path d="M314.363 157.055h-26.181v26.16h26.181v-26.16zm0-52.321h-26.181v26.207h26.181v-26.207zm-26.182 26.161H262v26.16h26.181v-26.16z" fill="#812DA5"/><path d="M262.001 314.156h-26.182v26.207h26.182v-26.207zm0-26.207h-26.182v26.16h26.182v-26.16z" fill="#232323"/><path d="M262.001 183.262h-26.182v26.16h26.182v-26.16zm0-26.207h-26.182v26.16h26.182v-26.16zm0-26.16h-26.182v26.16h26.182v-26.16z" fill="#812DA5"/><path d="M235.819 340.316h-26.228v26.161h26.228v-26.161z" fill="#232323"/><path d="M183.363 287.949h-26.181v26.16h26.181v-26.16zm-26.182-26.16H131v26.16h26.181v-26.16zm-26.134 26.16h-26.228v26.16h26.228v-26.16zm-26.275-26.16H78.591v26.16h26.181v-26.16z" fill="#fff"/><path d="M288.181 0H262v26.207h26.181V0zm0 26.207H262v26.16h26.181v-26.16z" fill="#C40F06"/><path d="M288.181 52.367H262v26.16h26.181v-26.16z" fill="#C40F06"/><path d="M314.362 52.367h-26.181v26.16h26.181v-26.16zm-26.181 26.16H262v26.161h26.181v-26.16z" fill="#E0C70E"/><path d="M314.362 78.527h-26.181v26.161h26.181v-26.16zm-26.181 26.207H262v26.207h26.181v-26.207z" fill="#3FAA00"/><path d="M314.362 104.734h-26.181v26.207h26.181v-26.207zm-26.181 26.161H262v26.16h26.181v-26.16z" fill="#00B6C4"/><path d="M314.362 130.895h-26.181v26.16h26.181v-26.16zm-26.181 26.16H262v26.16h26.181v-26.16z" fill="#0054CE"/><path d="M314.362 157.055h-26.181v26.16h26.181v-26.16z" fill="#6400CE"/></g><defs><clipPath id="clip0_14_219"><path fill="#fff" d="M0 0h786v733H0z"/></clipPath></defs></svg>